<?xml version="1.0" standalone="no"?>
<!DOCTYPE svg PUBLIC "-//W3C//DTD SVG 20010904//EN"
 "http://www.w3.org/TR/2001/REC-SVG-20010904/DTD/svg10.dtd">
<svg version="1.0" xmlns="http://www.w3.org/2000/svg"
 width="139.000000pt" height="155.000000pt" viewBox="0 0 139.000000 155.000000"
 preserveAspectRatio="xMidYMid meet">

<g transform="translate(0.000000,155.000000) scale(0.100000,-0.100000)"
fill="#000000" stroke="none">
<path d="M552 1288 c-56 -8 -210 -74 -199 -84 8 -8 97 25 119 44 10 8 56 19
108 24 122 13 230 -1 311 -42 33 -17 64 -29 67 -26 7 8 8 7 -78 49 -69 34 -84
37 -175 40 -55 2 -124 0 -153 -5z"/>
<path d="M970 1191 c0 -6 6 -11 13 -12 21 -1 130 -135 164 -201 69 -137 72
-317 7 -463 -26 -59 -45 -79 -41 -43 2 26 6 25 -95 7 -56 -11 -85 -10 -185 4
-65 9 -162 20 -215 23 -54 4 -98 8 -98 10 0 2 10 24 22 50 22 44 22 46 4 59
-27 20 -43 9 -55 -39 -6 -23 -20 -54 -31 -68 -11 -15 -20 -34 -20 -45 0 -17
11 -18 138 -19 119 -2 152 -6 257 -34 153 -41 195 -49 212 -43 22 9 14 -12
-14 -38 -35 -30 -80 -61 -113 -75 -14 -6 -52 -23 -85 -38 -33 -14 -67 -25 -75
-24 -8 0 -26 0 -40 -1 -25 -2 -25 -2 -3 -11 15 -6 40 -4 75 6 73 20 82 22 91
23 5 1 5 6 2 11 -3 6 0 10 7 11 30 2 51 8 66 22 10 8 22 16 29 18 7 2 36 27
64 54 137 132 198 317 165 503 -17 98 -74 208 -146 283 -51 53 -100 87 -100
70z"/>
<path d="M258 1127 c-207 -214 -204 -559 7 -771 62 -62 125 -106 125 -87 0 6
-12 17 -27 25 -32 17 -133 120 -133 136 0 5 6 10 13 10 33 0 141 120 123 137
-3 3 -17 -4 -33 -14 -37 -26 -88 -43 -128 -43 -26 0 -35 5 -43 27 -71 182 -35
387 98 551 28 35 49 66 46 69 -2 3 -24 -15 -48 -40z"/>
<path d="M553 1116 c-60 -37 -214 -91 -285 -101 -55 -7 -62 -25 -23 -51 19
-13 38 -15 76 -11 42 5 50 4 45 -8 -3 -8 0 -17 5 -21 6 -3 113 -7 237 -8 l227
-1 3 -32 3 -33 -238 -2 c-230 -3 -238 -4 -238 -23 0 -20 5 -20 238 -16 l237 4
0 -30 c0 -16 -5 -34 -11 -40 -7 -7 -63 -9 -172 -6 -89 2 -196 1 -237 -4 -71
-8 -75 -9 -75 -33 0 -21 4 -25 25 -23 14 2 135 4 270 5 l244 3 7 33 c4 18 8
81 10 140 l4 107 -97 3 c-54 1 -98 6 -98 10 0 3 23 30 51 58 72 73 65 85 -41
77 -77 -6 -81 -5 -87 15 -7 29 -18 27 -80 -12z m157 -52 c0 -4 -16 -27 -36
-50 l-35 -44 -127 0 -127 0 70 36 c39 20 75 40 80 44 18 15 175 27 175 14z"/>
<path d="M707 605 c-29 -61 -18 -71 33 -33 38 27 41 68 7 68 -17 0 -28 -10
-40 -35z"/>
<path d="M883 618 c-18 -22 -45 -80 -40 -85 6 -5 52 18 80 41 10 8 17 23 15
33 -4 22 -41 29 -55 11z"/>
<path d="M400 256 c0 -8 51 -33 105 -52 52 -17 188 -28 179 -13 -3 5 -25 9
-49 9 -24 0 -56 5 -72 11 -15 6 -48 17 -73 24 -25 7 -55 16 -67 20 -13 4 -23
5 -23 1z"/>
</g>
</svg>
