<?xml version="1.0" encoding="UTF-8"?>
<!DOCTYPE svg PUBLIC "-//W3C//DTD SVG 1.1//EN" "http://www.w3.org/Graphics/SVG/1.1/DTD/svg11.dtd">
<svg xmlns="http://www.w3.org/2000/svg" version="1.1" width="139px" height="155px" style="shape-rendering:geometricPrecision; text-rendering:geometricPrecision; image-rendering:optimizeQuality; fill-rule:evenodd; clip-rule:evenodd" xmlns:xlink="http://www.w3.org/1999/xlink">
<g><path style="opacity:1" fill="#f6f5f5" d="M -0.5,-0.5 C 45.8333,-0.5 92.1667,-0.5 138.5,-0.5C 138.5,51.1667 138.5,102.833 138.5,154.5C 92.1667,154.5 45.8333,154.5 -0.5,154.5C -0.5,102.833 -0.5,51.1667 -0.5,-0.5 Z"/></g>
<g><path style="opacity:1" fill="#f6f2f2" d="M 95.5,32.5 C 99.1164,35.2961 102.783,35.6294 106.5,33.5C 112.716,33.8363 119.05,34.3363 125.5,35C 123.101,38.9475 120.268,39.1141 117,35.5C 116,38.1667 115,38.1667 114,35.5C 110.64,37.0702 107.14,38.0702 103.5,38.5C 101.727,36.5675 99.5607,35.2341 97,34.5C 96.8333,34.8333 96.6667,35.1667 96.5,35.5C 101.179,40.6785 106.012,45.6785 111,50.5C 121.985,69.6113 122.318,88.9447 112,108.5C 111.79,106.942 111.29,105.609 110.5,104.5C 104.626,105.997 98.6258,106.664 92.5,106.5C 78.8255,105.366 65.1588,104.033 51.5,102.5C 52.9699,99.727 54.3032,96.8937 55.5,94C 54.7916,91.2765 53.1249,90.2765 50.5,91C 48.9511,96.2629 46.4511,101.096 43,105.5C 42.3162,106.784 42.4829,107.951 43.5,109C 61.9426,108.179 79.9426,110.679 97.5,116.5C 99.8333,117.167 102.167,117.833 104.5,118.5C 104.167,119.5 103.5,120.167 102.5,120.5C 95.1526,124.667 87.8193,128.833 80.5,133C 75.8439,133.665 71.1772,134.165 66.5,134.5C 57.8,133.981 49.4667,131.981 41.5,128.5C 40.7095,127.599 39.7095,126.932 38.5,126.5C 31.7845,122.451 26.4512,117.118 22.5,110.5C 28.8451,108.327 33.5118,104.161 36.5,98C 36.1667,97.5 35.8333,97 35.5,96.5C 32.1122,98.8606 28.4456,100.694 24.5,102C 21.7728,102.818 19.1062,102.652 16.5,101.5C 7.95143,77.7049 12.6181,57.0382 30.5,39.5C 31.7942,38.7101 32.9609,37.7101 34,36.5C 34.3333,36.8333 34.6667,37.1667 35,37.5C 35.6897,35.6498 36.8564,34.3164 38.5,33.5C 52.6004,26.414 67.2671,24.914 82.5,29C 86.3499,31.0905 90.3499,32.9239 94.5,34.5C 95.2975,34.0431 95.6309,33.3764 95.5,32.5 Z"/></g>
<g><path style="opacity:1" fill="#d94239" d="M 95.5,32.5 C 95.6309,33.3764 95.2975,34.0431 94.5,34.5C 90.3499,32.9239 86.3499,31.0905 82.5,29C 67.2671,24.914 52.6004,26.414 38.5,33.5C 37.4937,33.0623 37.4937,32.3957 38.5,31.5C 47.2325,25.9418 56.7325,23.6084 67,24.5C 71.8201,25.12 76.6534,25.62 81.5,26C 85.8716,28.8892 90.5383,31.0559 95.5,32.5 Z"/></g>
<g><path style="opacity:1" fill="#e28280" d="M 38.5,31.5 C 37.4937,32.3957 37.4937,33.0623 38.5,33.5C 36.8564,34.3164 35.6897,35.6498 35,37.5C 34.6667,37.1667 34.3333,36.8333 34,36.5C 32.9609,37.7101 31.7942,38.7101 30.5,39.5C 30.1583,38.6618 29.4916,38.3284 28.5,38.5C 31.2749,35.3954 34.6082,33.0621 38.5,31.5 Z"/></g>
<g><path style="opacity:1" fill="#d52e27" d="M 62.5,40.5 C 62.5,41.5 62.5,42.5 62.5,43.5C 65.1667,43.5 67.8333,43.5 70.5,43.5C 73.4929,42.8654 76.4929,42.6987 79.5,43C 80.0585,43.7247 80.3918,44.5581 80.5,45.5C 77.1951,49.1408 73.8617,52.8075 70.5,56.5C 77.055,57.1843 83.555,57.851 90,58.5C 90.0904,67.5386 89.5904,76.5386 88.5,85.5C 70.1453,86.2051 51.812,86.8718 33.5,87.5C 32.4511,83.1694 34.1178,81.0027 38.5,81C 53.1629,80.5001 67.8295,80.3334 82.5,80.5C 83.4682,78.3926 83.8016,76.0593 83.5,73.5C 69.3234,73.1709 55.3234,73.5042 41.5,74.5C 39.5,74.5 37.5,74.5 35.5,74.5C 35.0773,72.2188 35.744,70.5521 37.5,69.5C 52.8333,69.5 68.1667,69.5 83.5,69.5C 83.7947,67.2646 83.4614,65.2646 82.5,63.5C 67.9799,62.1914 53.3133,62.1914 38.5,63.5C 36.0847,63.2811 35.0847,61.9477 35.5,59.5C 31.8183,59.6653 28.1516,59.4986 24.5,59C 22.393,57.7365 21.393,55.9032 21.5,53.5C 35.1398,51.7562 47.8065,47.2562 59.5,40C 60.7494,39.2599 61.7494,39.4265 62.5,40.5 Z"/></g>
<g><path style="opacity:1" fill="#e48c8b" d="M 62.5,40.5 C 65.0283,41.9348 67.695,42.9348 70.5,43.5C 67.8333,43.5 65.1667,43.5 62.5,43.5C 62.5,42.5 62.5,41.5 62.5,40.5 Z"/></g>
<g><path style="opacity:1" fill="#f4e7e7" d="M 60.5,47.5 C 63.8984,47.1796 67.2317,47.513 70.5,48.5C 68.0472,51.2413 65.7139,54.0746 63.5,57C 55.1667,57.6667 46.8333,57.6667 38.5,57C 43.7311,54.7694 48.7311,52.1027 53.5,49C 56.0356,48.8138 58.369,48.3138 60.5,47.5 Z"/></g>
<g><path style="opacity:1" fill="#edc6c6" d="M 82.5,63.5 C 83.4614,65.2646 83.7947,67.2646 83.5,69.5C 68.1667,69.5 52.8333,69.5 37.5,69.5C 52.324,68.5039 67.324,68.1706 82.5,68.5C 82.5,66.8333 82.5,65.1667 82.5,63.5 Z"/></g>
<g><path style="opacity:1" fill="#eaafac" d="M 41.5,74.5 C 55.3234,73.5042 69.3234,73.1709 83.5,73.5C 83.8016,76.0593 83.4682,78.3926 82.5,80.5C 82.5,78.5 82.5,76.5 82.5,74.5C 68.8333,74.5 55.1667,74.5 41.5,74.5 Z"/></g>
<g><path style="opacity:1" fill="#d83b32" d="M 103.5,38.5 C 125.127,60.5529 128.127,84.8863 112.5,111.5C 110.852,109.544 110.185,107.211 110.5,104.5C 111.29,105.609 111.79,106.942 112,108.5C 122.318,88.9447 121.985,69.6113 111,50.5C 106.012,45.6785 101.179,40.6785 96.5,35.5C 96.6667,35.1667 96.8333,34.8333 97,34.5C 99.5607,35.2341 101.727,36.5675 103.5,38.5 Z"/></g>
<g><path style="opacity:1" fill="#d7372e" d="M 72.5,89.5 C 76.2253,89.7796 77.392,91.7796 76,95.5C 74.1038,97.5299 71.9371,99.1966 69.5,100.5C 68.6919,100.192 68.0253,99.6924 67.5,99C 68.8887,95.6509 70.5554,92.4842 72.5,89.5 Z"/></g>
<g><path style="opacity:1" fill="#d62f28" d="M 110.5,104.5 C 110.185,107.211 110.852,109.544 112.5,111.5C 110.306,116.237 106.972,119.904 102.5,122.5C 102.5,121.833 102.5,121.167 102.5,120.5C 103.5,120.167 104.167,119.5 104.5,118.5C 105.289,118.217 105.956,117.717 106.5,117C 103.518,116.502 100.518,116.335 97.5,116.5C 79.9426,110.679 61.9426,108.179 43.5,109C 42.4829,107.951 42.3162,106.784 43,105.5C 46.4511,101.096 48.9511,96.2629 50.5,91C 53.1249,90.2765 54.7916,91.2765 55.5,94C 54.3032,96.8937 52.9699,99.727 51.5,102.5C 65.1588,104.033 78.8255,105.366 92.5,106.5C 98.6258,106.664 104.626,105.997 110.5,104.5 Z"/></g>
<g><path style="opacity:1" fill="#d52f28" d="M 88.5,91.5 C 91.2605,90.9147 92.9272,91.9147 93.5,94.5C 91.1861,98.321 87.8528,100.654 83.5,101.5C 84.2816,97.72 85.9483,94.3866 88.5,91.5 Z"/></g>
<g><path style="opacity:1" fill="#d63029" d="M 28.5,38.5 C 29.4916,38.3284 30.1583,38.6618 30.5,39.5C 12.6181,57.0382 7.95143,77.7049 16.5,101.5C 19.1062,102.652 21.7728,102.818 24.5,102C 28.4456,100.694 32.1122,98.8606 35.5,96.5C 35.8333,97 36.1667,97.5 36.5,98C 33.5118,104.161 28.8451,108.327 22.5,110.5C 21.596,111.209 21.2627,112.209 21.5,113.5C 12.4609,102.52 8.62758,89.853 10,75.5C 11.1438,60.5585 17.3105,48.2252 28.5,38.5 Z"/></g>
<g><path style="opacity:1" fill="#da483f" d="M 22.5,110.5 C 26.4512,117.118 31.7845,122.451 38.5,126.5C 38.6716,127.492 38.3382,128.158 37.5,128.5C 30.8878,124.889 25.5544,119.889 21.5,113.5C 21.2627,112.209 21.596,111.209 22.5,110.5 Z"/></g>
<g><path style="opacity:1" fill="#e17874" d="M 97.5,116.5 C 100.518,116.335 103.518,116.502 106.5,117C 105.956,117.717 105.289,118.217 104.5,118.5C 102.167,117.833 99.8333,117.167 97.5,116.5 Z"/></g>
<g><path style="opacity:1" fill="#e58e8c" d="M 38.5,126.5 C 39.7095,126.932 40.7095,127.599 41.5,128.5C 40.6618,128.842 40.3284,129.508 40.5,130.5C 39.2905,130.068 38.2905,129.401 37.5,128.5C 38.3382,128.158 38.6716,127.492 38.5,126.5 Z"/></g>
<g><path style="opacity:1" fill="#d7372d" d="M 41.5,128.5 C 49.4667,131.981 57.8,133.981 66.5,134.5C 66.1667,135.167 65.8333,135.833 65.5,136.5C 56.6125,136.525 48.2792,134.525 40.5,130.5C 40.3284,129.508 40.6618,128.842 41.5,128.5 Z"/></g>
<g><path style="opacity:1" fill="#db534d" d="M 102.5,120.5 C 102.5,121.167 102.5,121.833 102.5,122.5C 94.2163,130.394 84.2163,135.061 72.5,136.5C 70.3127,135.928 67.9794,135.928 65.5,136.5C 65.8333,135.833 66.1667,135.167 66.5,134.5C 71.1772,134.165 75.8439,133.665 80.5,133C 87.8193,128.833 95.1526,124.667 102.5,120.5 Z"/></g>
</svg>
